<?xml version="1.0" encoding="UTF-8"?>
<svg version="1.1" xmlns="http://www.w3.org/2000/svg" width="308" height="300">
<path d="M0 0 C25.33210841 21.35134852 39.13372686 49.80147386 42.375 82.5625 C44.34811769 110.95689681 34.61295711 140.92382996 16.04296875 162.55078125 C5.24922496 174.6191518 -6.42706912 184.16716193 -20.81933594 191.62548828 C-22.34129346 192.41527641 -23.8483168 193.2337469 -25.3515625 194.05859375 C-50.03422671 206.63499885 -82.35230697 206.44665666 -108.3125 198.375 C-125.45398737 192.19888697 -139.37501718 183.05787743 -152.625 170.5625 C-153.30175781 169.95019531 -153.97851562 169.33789062 -154.67578125 168.70703125 C-175.5483912 149.08928763 -186.0352398 119.58016323 -186.90844727 91.42993164 C-187.36002055 58.51820783 -174.33982903 29.99338319 -151.625 6.5625 C-111.37968373 -33.83439938 -43.69494186 -35.3668148 0 0 Z M-144.1328125 25.76953125 C-150.26332966 31.99204541 -150.26332966 31.99204541 -153.625 39.5625 C-144.055 39.8925 -134.485 40.2225 -124.625 40.5625 C-120.13161853 52.91929904 -120.13161853 52.91929904 -118.546875 58.3203125 C-118.19423584 59.51188965 -117.84159668 60.7034668 -117.47827148 61.93115234 C-117.11419189 63.17074707 -116.7501123 64.4103418 -116.375 65.6875 C-112.32234862 79.37772413 -108.04100092 92.98461851 -103.625 106.5625 C-102.635 106.2325 -101.645 105.9025 -100.625 105.5625 C-99.44956718 102.82046165 -98.47116993 100.16832718 -97.55078125 97.33984375 C-97.26552078 96.49498413 -96.98026031 95.65012451 -96.68635559 94.77966309 C-95.75875304 92.02342316 -94.84804199 89.2619178 -93.9375 86.5 C-93.3088346 84.62147289 -92.67911366 82.74329871 -92.04833984 80.86547852 C-90.50608273 76.26587328 -88.97687021 71.66206377 -87.4520874 67.05664062 C-85.9341822 62.47929 -84.39806842 57.90806112 -82.86450195 53.3359375 C-81.44294456 49.08091885 -80.03519767 44.82129697 -78.625 40.5625 C-71.695 40.5625 -64.765 40.5625 -57.625 40.5625 C-46.625 73.5625 -46.625 73.5625 -35.625 106.5625 C-34.635 106.5625 -33.645 106.5625 -32.625 106.5625 C-32.35977287 105.69498108 -32.35977287 105.69498108 -32.08918762 104.80993652 C-30.22370317 98.70855994 -28.35752352 92.60739629 -26.4909668 86.50634766 C-25.79743449 84.23914795 -25.10407067 81.97189668 -24.41088867 79.70458984 C-22.44720698 73.28186198 -20.48048058 66.86008403 -18.50836182 60.43994141 C-17.9419296 58.59485881 -17.37637956 56.74950502 -16.81195068 54.90380859 C-16.1107409 52.61200837 -15.40567876 50.32143619 -14.69921875 48.03125 C-14.12627075 46.16629883 -14.12627075 46.16629883 -13.54174805 44.26367188 C-12.625 41.5625 -12.625 41.5625 -11.625 40.5625 C-8.76622091 40.32548761 -5.92616703 40.14030818 -3.0625 40 C-2.25619141 39.95681641 -1.44988281 39.91363281 -0.61914062 39.86914062 C1.37868805 39.76274738 3.3768207 39.66209112 5.375 39.5625 C6.00860011 37.68028505 6.00860011 37.68028505 6.375 35.5625 C5.04150819 33.10997749 5.04150819 33.10997749 3.0625 30.8125 C2.42699219 30.01328125 1.79148438 29.2140625 1.13671875 28.390625 C0.26466797 27.48570313 0.26466797 27.48570313 -0.625 26.5625 C-1.285 26.5625 -1.945 26.5625 -2.625 26.5625 C-2.86605469 25.99015625 -3.10710937 25.4178125 -3.35546875 24.828125 C-8.32745706 15.95503817 -19.07918359 10.40477455 -27.625 5.5625 C-28.82189453 4.85287109 -28.82189453 4.85287109 -30.04296875 4.12890625 C-35.35228961 1.19552932 -40.87830397 -0.54273836 -46.6875 -2.1875 C-47.80354614 -2.50400513 -47.80354614 -2.50400513 -48.94213867 -2.8269043 C-83.70605004 -12.15212741 -119.57637128 0.53689817 -144.1328125 25.76953125 Z M-157.625 45.5625 C-157.295 47.2125 -156.965 48.8625 -156.625 50.5625 C-153.62968461 51.56093846 -152.45244268 51.56982761 -149.4375 51.125 C-148.179375 50.939375 -146.92125 50.75375 -145.625 50.5625 C-145.295 49.2425 -144.965 47.9225 -144.625 46.5625 C-148.915 46.2325 -153.205 45.9025 -157.625 45.5625 Z M11.375 45.5625 C10.90042358 46.98622925 10.90042358 46.98622925 10.41625977 48.4387207 C3.73583984 68.47998047 -2.94458008 88.52124023 -9.625 108.5625 C0.275 108.5625 10.175 108.5625 20.375 108.5625 C21.81280362 102.09238371 22.70410737 96.83632914 22.625 90.375 C22.61678223 89.54693848 22.60856445 88.71887695 22.60009766 87.86572266 C22.34709915 73.7930209 20.42657292 56.99855092 11.375 45.5625 Z M-158.625 47.5625 C-157.625 49.5625 -157.625 49.5625 -157.625 49.5625 Z M-154.625 54.5625 C-154.955 54.8925 -155.285 55.2225 -155.625 55.5625 C-157.95317964 55.93010731 -160.2868385 56.26491581 -162.625 56.5625 C-163.27503625 58.76959983 -163.91984745 60.97823892 -164.5625 63.1875 C-164.92214844 64.41726562 -165.28179687 65.64703125 -165.65234375 66.9140625 C-167.03789834 72.11128333 -167.75154416 76.98549466 -167.7578125 82.36328125 C-167.75910156 83.42224609 -167.76039063 84.48121094 -167.76171875 85.57226562 C-167.75785156 86.66216797 -167.75398438 87.75207031 -167.75 88.875 C-167.75386719 89.98423828 -167.75773437 91.09347656 -167.76171875 92.23632812 C-167.76042969 93.28884766 -167.75914062 94.34136719 -167.7578125 95.42578125 C-167.75668457 96.38782471 -167.75555664 97.34986816 -167.75439453 98.34106445 C-167.87353644 100.53556099 -167.87353644 100.53556099 -166.625 101.5625 C-164.86941342 101.70806418 -163.10843892 101.78973562 -161.34765625 101.84375 C-160.27708984 101.88113281 -159.20652344 101.91851562 -158.10351562 101.95703125 C-156.97623047 101.99183594 -155.84894531 102.02664062 -154.6875 102.0625 C-152.46991753 102.13120307 -150.25245457 102.20391789 -148.03515625 102.28125 C-147.04652588 102.31154297 -146.05789551 102.34183594 -145.03930664 102.37304688 C-142.625 102.5625 -142.625 102.5625 -140.625 103.5625 C-140.955 104.8825 -141.285 106.2025 -141.625 107.5625 C-149.545 107.8925 -157.465 108.2225 -165.625 108.5625 C-163.52755462 125.34206305 -155.52710233 139.82008552 -144.625 152.5625 C-143.84125 153.59375 -143.0575 154.625 -142.25 155.6875 C-126.79298918 172.61660709 -103.15844879 183.41335592 -80.36962891 184.6887207 C-51.74985557 185.62996403 -27.39450232 177.75141265 -6.02734375 158.18359375 C1.51574618 150.91355685 7.53634351 142.85272046 12.375 133.5625 C12.375 132.9025 12.375 132.2425 12.375 131.5625 C2.475 131.5625 -7.425 131.5625 -17.625 131.5625 C-21.11831602 139.89044401 -21.11831602 139.89044401 -22.625 148.5625 C-30.215 148.5625 -37.805 148.5625 -45.625 148.5625 C-46.615 144.1075 -46.615 144.1075 -47.625 139.5625 C-48.615 136.9225 -49.605 134.2825 -50.625 131.5625 C-62.505 131.5625 -74.385 131.5625 -86.625 131.5625 C-90.05892838 139.91094429 -90.05892838 139.91094429 -91.625 148.5625 C-100.205 148.5625 -108.785 148.5625 -117.625 148.5625 C-117.13 146.5825 -117.13 146.5825 -116.625 144.5625 C-112.17 144.0675 -112.17 144.0675 -107.625 143.5625 C-107.625 142.2425 -107.625 140.9225 -107.625 139.5625 C-115.875 139.2325 -124.125 138.9025 -132.625 138.5625 C-132.625 137.2425 -132.625 135.9225 -132.625 134.5625 C-124.21 134.0675 -124.21 134.0675 -115.625 133.5625 C-115.955 132.2425 -116.285 130.9225 -116.625 129.5625 C-119.925 129.5625 -123.225 129.5625 -126.625 129.5625 C-126.625 127.9125 -126.625 126.2625 -126.625 124.5625 C-123.655 123.5725 -123.655 123.5725 -120.625 122.5625 C-120.955 121.2425 -121.285 119.9225 -121.625 118.5625 C-125.585 118.2325 -129.545 117.9025 -133.625 117.5625 C-133.625 116.2425 -133.625 114.9225 -133.625 113.5625 C-127.355 113.2325 -121.085 112.9025 -114.625 112.5625 C-114.625 111.2425 -114.625 109.9225 -114.625 108.5625 C-121.555 108.5625 -128.485 108.5625 -135.625 108.5625 C-135.625 106.9125 -135.625 105.2625 -135.625 103.5625 C-132.655 102.9025 -129.685 102.2425 -126.625 101.5625 C-126.955 100.5725 -127.285 99.5825 -127.625 98.5625 C-129.935 98.2325 -132.245 97.9025 -134.625 97.5625 C-135.1784764 95.48696352 -135.625 93.71884036 -135.625 91.5625 C-133.645 91.5625 -131.665 91.5625 -129.625 91.5625 C-130.12 89.5825 -130.12 89.5825 -130.625 87.5625 C-134.255 87.5625 -137.885 87.5625 -141.625 87.5625 C-141.625 85.5825 -141.625 83.6025 -141.625 81.5625 C-136.675 81.5625 -131.725 81.5625 -126.625 81.5625 C-126.295 80.2425 -125.965 78.9225 -125.625 77.5625 C-138.495 77.0675 -138.495 77.0675 -151.625 76.5625 C-150.965 74.9125 -150.305 73.2625 -149.625 71.5625 C-145.005 71.2325 -140.385 70.9025 -135.625 70.5625 C-135.955 69.2425 -136.285 67.9225 -136.625 66.5625 C-139.265 66.5625 -141.905 66.5625 -144.625 66.5625 C-144.625 64.9125 -144.625 63.2625 -144.625 61.5625 C-141.16 61.0675 -141.16 61.0675 -137.625 60.5625 C-137.955 59.2425 -138.285 57.9225 -138.625 56.5625 C-143.575 56.5625 -148.525 56.5625 -153.625 56.5625 C-153.955 55.9025 -154.285 55.2425 -154.625 54.5625 Z M-69.625 84.5625 C-75.11831314 96.22899512 -75.11831314 96.22899512 -77.625 108.5625 C-71.355 108.5625 -65.085 108.5625 -58.625 108.5625 C-61.265 100.6425 -63.905 92.7225 -66.625 84.5625 C-67.615 84.5625 -68.605 84.5625 -69.625 84.5625 Z M-125.625 98.5625 C-125.295 99.5525 -124.965 100.5425 -124.625 101.5625 C-123.965 101.5625 -123.305 101.5625 -122.625 101.5625 C-122.625 100.5725 -122.625 99.5825 -122.625 98.5625 C-123.615 98.5625 -124.605 98.5625 -125.625 98.5625 Z " fill="#FAFDFD" transform="translate(218.625,54.4375)"/>
<path d="M0 0 C0.33 0 0.66 0 1 0 C1 9.9 1 19.8 1 30 C8.76299755 30.24937296 8.76299755 30.24937296 16.52661133 30.47802734 C17.4936499 30.5136377 18.46068848 30.54924805 19.45703125 30.5859375 C20.44678955 30.6173584 21.43654785 30.6487793 22.45629883 30.68115234 C25 31 25 31 28 33 C27.125 36.875 27.125 36.875 26 38 C24.21928754 38.08726223 22.4351686 38.10699041 20.65234375 38.09765625 C19.57275391 38.09443359 18.49316406 38.09121094 17.38085938 38.08789062 C16.24455078 38.07951172 15.10824219 38.07113281 13.9375 38.0625 C12.79732422 38.05798828 11.65714844 38.05347656 10.48242188 38.04882812 C7.65489649 38.03699747 4.8274736 38.0205141 2 38 C2.33 40.64 2.66 43.28 3 46 C1 43 1 43 1 37 C8.92 36.67 16.84 36.34 25 36 C25.33 35.34 25.66 34.68 26 34 C24.82642944 33.96241577 24.82642944 33.96241577 23.62915039 33.92407227 C20.10675051 33.80850212 16.5846444 33.68560051 13.0625 33.5625 C11.83080078 33.52318359 10.59910156 33.48386719 9.33007812 33.44335938 C7.5753418 33.38051758 7.5753418 33.38051758 5.78515625 33.31640625 C4.70113525 33.27974854 3.61711426 33.24309082 2.50024414 33.20532227 C0 33 0 33 -1 32 C-1.10001308 29.97464078 -1.13081027 27.94579482 -1.1328125 25.91796875 C-1.13410156 24.67595703 -1.13539062 23.43394531 -1.13671875 22.15429688 C-1.13285156 20.84525391 -1.12898438 19.53621094 -1.125 18.1875 C-1.12886719 16.89005859 -1.13273437 15.59261719 -1.13671875 14.25585938 C-1.13478516 12.38704102 -1.13478516 12.38704102 -1.1328125 10.48046875 C-1.13112061 8.76186646 -1.13112061 8.76186646 -1.12939453 7.00854492 C-1.0206058 4.47910431 -0.74145344 2.40512182 0 0 Z " fill="#E3F7FD" transform="translate(51,125)"/>
<path d="M0 0 C0 1.98 0 3.96 0 6 C-3.40059484 8.05674531 -6.1186371 8.2978388 -10.0625 8.3125 C-11.62677734 8.33763672 -11.62677734 8.33763672 -13.22265625 8.36328125 C-16 8 -16 8 -17.87109375 6.48046875 C-18.24363281 5.99191406 -18.61617187 5.50335938 -19 5 C-18.50390625 3.046875 -18.50390625 3.046875 -17 1 C-14.19500371 0.53299955 -11.75196565 0.30379517 -8.9375 0.25 C-7.81891602 0.20552734 -7.81891602 0.20552734 -6.67773438 0.16015625 C-4.45231819 0.07526299 -2.22742779 0 0 0 Z " fill="#EEFBFD" transform="translate(81,145)"/>
<path d="M0 0 C0.89589844 -0.01417969 1.79179688 -0.02835937 2.71484375 -0.04296875 C5.0625 0.1875 5.0625 0.1875 7.0625 2.1875 C6.52678571 5.72321429 6.52678571 5.72321429 5.0625 7.1875 C3.20962498 7.25976502 1.35416122 7.2713122 -0.5 7.25 C-1.51191406 7.24097656 -2.52382813 7.23195312 -3.56640625 7.22265625 C-4.34886719 7.21105469 -5.13132813 7.19945312 -5.9375 7.1875 C-5.98004356 5.18795254 -5.97830783 3.18708364 -5.9375 1.1875 C-4.27188601 -0.47811399 -2.27787295 0.01634055 0 0 Z " fill="#E6FCFE" transform="translate(58.9375,124.8125)"/>
<path d="M0 0 C0.99 0.33 1.98 0.66 3 1 C3 1.99 3 2.98 3 4 C4.81325551 3.88648483 6.62563357 3.75887039 8.4375 3.625 C9.44683594 3.55539063 10.45617187 3.48578125 11.49609375 3.4140625 C12.32238281 3.27742188 13.14867188 3.14078125 14 3 C14.33 2.34 14.66 1.68 15 1 C15.66 1 16.32 1 17 1 C16.34 2.32 15.68 3.64 15 5 C12.36 5 9.72 5 7 5 C7 5.99 7 6.98 7 8 C13.93 8.495 13.93 8.495 21 9 C21 9.33 21 9.66 21 10 C13 10 5 10 -3 10 C-3.33 11.98 -3.66 13.96 -4 16 C-4.33 16 -4.66 16 -5 16 C-5 13.69 -5 11.38 -5 9 C-2.36 8.67 0.28 8.34 3 8 C3.33 7.01 3.66 6.02 4 5 C2.35 5 0.7 5 -1 5 C-0.67 3.35 -0.34 1.7 0 0 Z M1 1 C2 3 2 3 2 3 Z " fill="#E5FAFE" transform="translate(59,101)"/>
<path d="M0 0 C0.33 1.32 0.66 2.64 1 4 C-0.0828125 4.8353125 -0.0828125 4.8353125 -1.1875 5.6875 C-3.96915053 7.89834847 -3.96915053 7.89834847 -6.1875 10.1875 C-18.7 22.7 -18.7 22.7 -25 26 C-27.1640625 25.5859375 -27.1640625 25.5859375 -29 25 C-28.34515625 24.62230469 -27.6903125 24.24460938 -27.015625 23.85546875 C-16.52378159 17.52776093 -7.65787313 9.57234142 0 0 Z " fill="#E9FBFE" transform="translate(221,202)"/>
<path d="M0 0 C1.670625 0.061875 1.670625 0.061875 3.375 0.125 C3.75718767 1.78114657 4.08895102 3.44957024 4.375 5.125 C3.375 6.125 3.375 6.125 1.52734375 6.22265625 C-0.5234375 6.19010417 -2.57421875 6.15755208 -4.625 6.125 C-5.25 4.25 -5.25 4.25 -5.625 2.125 C-3.625 0.125 -3.625 0.125 0 0 Z " fill="#E1F9FF" transform="translate(78.625,166.875)"/>
<path d="M0 0 C1.3921875 0.3403125 1.3921875 0.3403125 2.8125 0.6875 C2.8125 2.3375 2.8125 3.9875 2.8125 5.6875 C0.5025 6.0175 -1.8075 6.3475 -4.1875 6.6875 C-4.8475 5.3675 -5.5075 4.0475 -6.1875 2.6875 C-4.14987265 -0.14253799 -3.59070275 -0.35202968 0 0 Z " fill="#DFF9FF" transform="translate(85.1875,177.3125)"/>
<path d="M0 0 C2.52827282 3.13024254 4.20542002 6.41084003 6 10 C6.66 10.66 7.32 11.32 8 12 C8.66666667 13.66666667 9.33333333 15.33333333 10 17 C10.66 17.66 11.32 18.32 12 19 C11.625 21.125 11.625 21.125 11 23 C0 5.23367698 0 5.23367698 0 0 Z " fill="#EBFDFE" transform="translate(40,184)"/>
<path d="M0 0 C-0.33 0.99 -0.66 1.98 -1 3 C-3.64 3 -6.28 3 -9 3 C-9.33 1.68 -9.66 0.36 -10 -1 C-5.92224809 -1.9267618 -3.57818963 -2.33958553 0 0 Z " fill="#FAFDFB" transform="translate(64,128)"/>
<path d="M0 0 C0.99 0.495 0.99 0.495 2 1 C1.67 1.66 1.34 2.32 1 3 C6.61 3 12.22 3 18 3 C18 3.33 18 3.66 18 4 C17.15695313 4.06058594 16.31390625 4.12117187 15.4453125 4.18359375 C14.34960938 4.26738281 13.25390625 4.35117188 12.125 4.4375 C10.48917969 4.55931641 10.48917969 4.55931641 8.8203125 4.68359375 C6.05271029 4.83001703 6.05271029 4.83001703 4 6 C1.875 5.0625 1.875 5.0625 0 4 C0 2.68 0 1.36 0 0 Z " fill="#DFF9FC" transform="translate(140,160)"/>
<path d="M0 0 C1.31600093 3.94800278 0.07613159 6.39940306 -1.3125 10.125 C-1.53873047 10.77082031 -1.76496094 11.41664063 -1.99804688 12.08203125 C-3.73948991 16.86974496 -3.73948991 16.86974496 -6 18 C-1.63106796 1.63106796 -1.63106796 1.63106796 0 0 Z " fill="#E7F9FE" transform="translate(147,140)"/>
<path d="M0 0 C2.375 -0.1875 2.375 -0.1875 5 0 C5.66 0.99 6.32 1.98 7 3 C4.29120665 4.35439668 1.99066732 4.06501451 -1 4 C-0.67 2.68 -0.34 1.36 0 0 Z " fill="#F3FCFD" transform="translate(74,168)"/>
<path d="M0 0 C1.98 0 3.96 0 6 0 C5.67 1.32 5.34 2.64 5 4 C3.35 3.67 1.7 3.34 0 3 C0 2.01 0 1.02 0 0 Z " fill="#F9FBFD" transform="translate(81,179)"/>
<path d="M0 0 C0.99 1.485 0.99 1.485 2 3 C2.5775 3.61875 3.155 4.2375 3.75 4.875 C4.1625 5.57625 4.575 6.2775 5 7 C4.1875 9.75 4.1875 9.75 3 12 C0.97649676 8.96474514 0.67875982 7.80573798 0.375 4.3125 C0.30023438 3.50425781 0.22546875 2.69601563 0.1484375 1.86328125 C0.09945312 1.24839844 0.05046875 0.63351563 0 0 Z " fill="#ECFBFE" transform="translate(34,163)"/>
<path d="M0 0 C1.32 0.33 2.64 0.66 4 1 C1.69 2.65 -0.62 4.3 -3 6 C-3.66 5.67 -4.32 5.34 -5 5 C-2.75 2.4375 -2.75 2.4375 0 0 Z " fill="#ECFEFD" transform="translate(210,235)"/>
<path d="M0 0 C3.88862987 1.26117725 5.89375599 2.45264167 8 6 C8 6.66 8 7.32 8 8 C7.34 8 6.68 8 6 8 C4.4921875 6.25 4.4921875 6.25 2.875 4 C2.33617187 3.2575 1.79734375 2.515 1.2421875 1.75 C0.62730469 0.88375 0.62730469 0.88375 0 0 Z " fill="#E2FCFF" transform="translate(210,73)"/>
<path d="M0 0 C0.99 0.33 1.98 0.66 3 1 C0.69 3.31 -1.62 5.62 -4 8 C-4.66 7.67 -5.32 7.34 -6 7 C-4.02 4.69 -2.04 2.38 0 0 Z " fill="#E9FEFF" transform="translate(225,223)"/>
<path d="M0 0 C2 1 2 1 2 1 Z " fill="#FFFFFF" transform="translate(66,154)"/>
<path d="M0 0 C2 1 2 1 2 1 Z " fill="#FFFFFF" transform="translate(75,113)"/>
<path d="" fill="#AAFFFF" transform="translate(0,0)"/>
</svg>
